if (_typeface_js && _typeface_js.loadFace) _typeface_js.loadFace({"glyphs":{"S":{"x_min":31.953125,"x_max":877.84375,"ha":926,"o":"m 31 183 l 186 291 q 490 143 283 143 q 595 159 554 143 q 679 272 679 194 q 605 369 679 338 q 491 400 577 379 l 373 425 q 250 459 277 448 q 204 483 226 469 q 152 524 181 497 q 103 597 122 551 q 84 700 84 643 q 191 922 84 838 q 472 1005 298 1005 q 866 807 720 1005 l 716 694 q 692 729 701 716 q 658 766 683 741 q 609 804 633 790 q 546 829 586 818 q 462 840 506 840 q 331 807 384 840 q 277 720 277 775 q 291 670 277 691 q 336 636 305 650 q 390 618 368 623 q 458 604 412 612 l 559 581 q 667 553 622 569 q 766 505 712 537 q 848 418 819 473 q 877 290 877 363 q 842 147 877 209 q 747 47 807 84 q 614 -6 687 11 q 461 -25 541 -25 q 286 -2 365 -25 q 31 183 115 48 "},"/":{"x_min":18.0625,"x_max":648.65625,"ha":665,"o":"m 18 0 l 484 980 l 648 980 l 183 0 l 18 0 "},"K":{"x_min":111.125,"x_max":923.6875,"ha":926,"o":"m 902 980 l 580 611 l 923 0 l 713 0 l 452 461 l 293 277 l 293 0 l 111 0 l 111 980 l 293 980 l 293 530 l 686 980 l 902 980 "},"7":{"x_min":88.890625,"x_max":711.171875,"ha":781,"o":"m 711 940 l 711 788 q 395 0 437 448 l 166 0 q 256 343 202 208 q 359 548 305 461 q 512 776 412 636 l 88 776 l 88 940 l 711 940 "},"d":{"x_min":50,"x_max":716.71875,"ha":810,"o":"m 551 980 l 716 980 l 716 0 l 551 0 l 551 66 q 358 -20 479 -20 q 138 72 227 -20 q 50 331 50 166 q 135 604 50 493 q 365 715 220 715 q 551 637 480 715 l 551 980 m 550 343 q 512 497 547 445 q 390 561 469 561 q 266 500 309 561 q 223 350 223 438 q 225 328 223 340 q 229 288 226 316 q 244 234 233 259 q 272 184 255 209 q 318 143 288 158 q 387 129 348 129 q 504 183 458 129 q 550 343 551 237 "},",":{"x_min":51.390625,"x_max":236.125,"ha":289,"o":"m 51 190 l 236 190 l 236 22 q 234 -47 236 -26 q 220 -95 231 -69 q 186 -141 209 -120 q 62 -193 148 -175 l 62 -112 q 137 0 137 -102 l 51 0 l 51 190 "},"Y":{"x_min":13.890625,"x_max":852.84375,"ha":868,"o":"m 852 980 l 522 387 l 522 0 l 341 0 l 341 387 l 13 980 l 220 980 l 433 573 l 648 980 l 852 980 "},"E":{"x_min":108.34375,"x_max":840.34375,"ha":868,"o":"m 805 816 l 288 816 l 288 586 l 761 586 l 761 427 l 288 427 l 288 165 l 840 165 l 840 0 l 108 0 l 108 980 l 805 980 l 805 816 "},"y":{"x_min":16.671875,"x_max":652.828125,"ha":665,"o":"m 481 694 l 652 694 l 476 88 l 437 -41 q 353 -195 401 -152 q 209 -238 305 -238 q 109 -230 168 -238 l 109 -84 q 154 -88 131 -88 q 229 -70 202 -88 q 255 -43 243 -61 q 268 -13 268 -25 l 16 694 l 195 694 l 350 176 l 481 694 "},"\"":{"x_min":44.453125,"x_max":504.828125,"ha":550,"o":"m 504 944 l 438 584 l 401 584 l 336 927 q 333 958 333 950 q 359 1016 333 993 q 425 1040 384 1040 q 497 1000 477 1040 q 504 944 506 983 m 213 944 l 150 584 l 112 584 l 47 927 q 44 958 44 950 q 70 1017 44 994 q 136 1040 95 1040 q 202 1008 180 1040 q 213 944 219 984 "},"g":{"x_min":47.21875,"x_max":722.28125,"ha":810,"o":"m 556 694 l 722 694 l 722 125 q 713 -39 720 6 q 677 -126 707 -86 q 388 -231 597 -231 q 238 -214 300 -231 q 144 -163 177 -197 q 95 -95 111 -129 q 69 -13 79 -62 l 252 -13 q 394 -100 279 -100 q 531 -44 494 -100 q 552 10 548 -20 q 556 115 556 41 q 348 40 475 40 q 133 127 219 40 q 47 372 47 213 q 67 506 47 445 q 120 604 87 566 q 195 668 152 643 q 278 704 237 694 q 359 715 319 715 q 556 622 484 715 l 556 694 m 561 369 q 516 511 562 456 q 388 566 470 566 q 268 518 318 566 q 218 376 218 469 q 265 240 218 288 q 390 193 313 193 q 511 236 463 193 q 561 369 559 279 "},"ƒ":{"x_min":20.828125,"x_max":580.609375,"ha":607,"o":"m 547 658 l 534 540 l 390 540 l 326 0 q 275 -188 308 -144 q 127 -248 226 -248 q 20 -234 83 -248 l 38 -87 q 87 -94 62 -94 q 134 -68 122 -94 q 156 31 147 -41 l 216 540 l 108 540 l 122 658 l 230 658 q 265 854 245 808 q 468 952 308 952 q 580 944 518 952 l 565 804 q 511 807 523 807 q 430 780 450 807 q 406 693 411 754 l 404 658 l 547 658 "},"e":{"x_min":47.21875,"x_max":743.109375,"ha":781,"o":"m 601 237 l 743 155 q 404 -20 611 -20 q 151 74 255 -20 q 47 350 47 169 q 144 618 47 520 q 393 715 241 715 q 509 699 456 715 q 595 657 562 683 q 642 615 627 630 q 666 584 657 600 q 737 313 733 488 l 223 313 q 288 186 238 230 q 420 141 338 141 q 601 237 533 141 m 229 436 l 554 436 q 398 581 533 581 q 229 436 259 581 "},"J":{"x_min":36.109375,"x_max":462.53125,"ha":550,"o":"m 280 980 l 462 980 l 462 287 q 460 212 462 238 q 448 150 458 186 q 418 87 438 115 q 148 -20 340 -20 q 36 -8 102 -20 l 36 172 q 133 158 101 158 q 245 197 209 158 q 275 252 269 220 q 280 354 280 283 l 280 980 "},"|":{"x_min":87.5,"x_max":230.578125,"ha":318,"o":"m 230 1041 l 230 -347 l 87 -347 l 87 1041 l 230 1041 "},"^":{"x_min":134.734375,"x_max":791.734375,"ha":926,"o":"m 531 980 l 791 450 l 627 450 l 466 790 l 297 450 l 134 450 l 405 980 l 531 980 "},"q":{"x_min":34.71875,"x_max":705.609375,"ha":781,"o":"m 540 694 l 705 694 l 705 -226 l 540 -226 l 540 65 q 340 -20 458 -20 q 116 81 198 -20 q 34 340 34 183 q 130 616 34 518 q 348 715 226 715 q 540 620 473 715 l 540 694 m 541 345 q 523 447 540 404 q 479 511 506 490 q 425 543 452 533 q 372 552 398 552 q 255 499 305 552 q 205 340 205 445 q 249 190 205 248 q 372 131 293 131 q 495 187 448 131 q 541 345 543 243 "},"b":{"x_min":88.890625,"x_max":759.78125,"ha":810,"o":"m 88 980 l 254 980 l 254 636 q 455 715 340 715 q 668 612 577 715 q 759 350 759 509 q 666 82 759 186 q 444 -20 573 -20 q 254 72 334 -20 l 254 0 l 88 0 l 88 980 m 587 352 q 538 507 590 451 q 415 563 487 563 q 300 512 350 563 q 251 358 251 461 q 262 269 251 302 q 297 193 273 223 q 351 153 322 163 q 395 140 380 143 q 422 137 409 137 q 545 203 505 137 q 587 352 584 269 "},"D":{"x_min":98.625,"x_max":929.234375,"ha":983,"o":"m 98 0 l 98 980 l 450 980 q 543 976 508 979 q 635 956 577 973 q 740 904 693 938 q 929 481 929 770 q 879 232 929 345 q 727 59 830 119 q 625 19 682 33 q 527 3 568 5 q 412 0 487 1 l 98 0 m 379 813 l 281 813 l 281 165 l 359 165 q 588 187 527 165 q 694 277 654 212 q 734 480 734 341 q 584 787 734 715 q 511 808 547 804 q 379 813 476 812 "},"z":{"x_min":43.0625,"x_max":637.546875,"ha":695,"o":"m 80 694 l 637 694 l 637 565 l 269 147 l 637 147 l 637 0 l 43 0 l 43 127 l 418 545 l 80 545 l 80 694 "},"w":{"x_min":23.609375,"x_max":1020.921875,"ha":1042,"o":"m 723 219 l 847 694 l 1020 694 l 812 0 l 647 0 l 522 443 l 388 0 l 225 0 l 23 694 l 197 694 l 318 219 l 447 694 l 595 694 l 723 219 "},"$":{"x_min":50,"x_max":813.953125,"ha":868,"o":"m 498 1118 l 498 968 q 797 816 686 947 l 666 712 q 604 771 637 748 q 554 800 572 794 q 498 816 536 807 l 498 594 q 607 567 561 583 q 705 520 654 551 q 785 434 757 488 q 813 304 813 379 q 719 87 813 172 q 498 0 641 18 l 498 -158 l 370 -158 l 370 0 q 311 11 333 6 q 250 30 290 16 q 180 61 209 44 q 115 111 151 79 q 50 184 79 143 l 190 291 q 370 166 276 175 l 370 431 q 327 437 347 434 q 268 449 308 440 q 199 476 229 458 q 138 520 169 494 q 91 587 108 545 q 75 682 75 629 q 123 838 75 769 q 370 968 195 940 l 370 1118 l 498 1118 m 370 616 l 370 816 q 288 778 318 808 q 258 709 258 748 q 284 650 258 672 q 370 616 309 627 m 498 412 l 498 163 q 594 210 556 175 q 632 293 632 245 q 498 412 632 386 "},"™":{"x_min":11.109375,"x_max":909.796875,"ha":954,"o":"m 909 980 l 909 519 l 813 519 l 818 784 l 823 879 l 802 802 l 716 519 l 629 519 l 540 804 l 519 877 l 526 784 l 531 519 l 436 519 l 436 980 l 563 980 l 675 632 l 780 980 l 909 980 m 255 900 l 255 519 l 156 519 l 156 900 l 11 900 l 11 980 l 397 980 l 397 900 l 255 900 "},"\\":{"x_min":18.0625,"x_max":648.65625,"ha":665,"o":"m 648 0 l 484 0 l 18 980 l 183 980 l 648 0 "},"~":{"x_min":113.890625,"x_max":812.5625,"ha":926,"o":"m 748 523 l 812 400 q 764 352 783 369 q 700 311 745 334 q 608 287 654 287 q 465 331 558 287 l 425 351 q 318 383 355 383 q 254 365 279 383 q 180 288 230 347 l 113 409 q 315 533 198 533 q 463 488 368 533 l 511 466 q 612 437 579 437 q 748 523 676 437 "},"-":{"x_min":73.609375,"x_max":418.09375,"ha":492,"o":"m 73 513 l 418 513 l 418 358 l 73 358 l 73 513 "},"Q":{"x_min":50,"x_max":1083.421875,"ha":1071,"o":"m 1083 136 l 1032 -38 q 823 81 932 -16 q 513 -25 691 -25 q 175 118 301 -25 q 50 490 50 262 q 102 746 50 630 q 263 934 155 862 q 515 1005 370 1005 q 776 932 666 1005 q 936 748 886 859 q 986 506 986 637 q 968 351 986 437 q 915 208 951 265 q 984 152 933 170 q 1063 133 1034 133 q 1083 136 1069 133 m 788 490 q 707 740 790 650 q 512 830 623 830 q 319 728 393 830 q 245 486 245 626 q 325 243 245 337 q 525 148 404 148 q 677 204 615 148 q 764 335 740 261 q 788 490 788 409 "},"M":{"x_min":105.5625,"x_max":1018.140625,"ha":1128,"o":"m 751 980 l 1018 980 l 1018 0 l 838 0 l 855 805 l 644 0 l 479 0 l 266 805 l 284 0 l 105 0 l 105 980 l 372 980 l 563 252 l 751 980 "},"C":{"x_min":51.390625,"x_max":933.40625,"ha":956,"o":"m 761 345 l 933 273 q 848 126 900 187 q 509 -25 718 -25 q 180 113 309 -25 q 51 493 51 252 q 185 869 51 733 q 516 1005 319 1005 q 634 991 579 1005 q 725 958 688 977 q 795 907 762 938 q 845 851 827 875 q 881 791 863 827 q 903 741 898 755 q 916 702 908 727 l 733 654 q 697 751 725 709 q 520 837 638 837 q 325 744 400 837 q 250 495 250 651 q 326 240 250 333 q 522 148 402 148 q 709 244 634 148 q 761 345 744 290 "},"[":{"x_min":83.34375,"x_max":452.8125,"ha":492,"o":"m 452 1054 l 452 920 l 265 920 l 265 54 l 452 54 l 452 -80 l 83 -80 l 83 1054 l 452 1054 "},"L":{"x_min":113.890625,"x_max":687.5625,"ha":724,"o":"m 298 982 l 298 166 l 687 166 l 687 0 l 113 0 l 113 982 l 298 982 "},"!":{"x_min":111.125,"x_max":293.078125,"ha":347,"o":"m 293 605 l 240 244 l 162 244 l 111 605 l 111 980 l 293 980 l 293 605 m 111 191 l 293 191 l 293 0 l 111 0 l 111 191 "}," ":{"x_min":0,"x_max":0,"ha":376},"{":{"x_min":56.953125,"x_max":486.15625,"ha":492,"o":"m 56 438 l 56 526 q 88 537 77 533 q 115 556 100 541 q 141 593 130 570 q 159 750 159 632 l 159 800 q 171 951 161 904 q 215 1033 181 998 q 302 1079 250 1068 q 486 1091 354 1090 l 486 1002 q 366 932 395 980 q 341 769 341 894 l 343 768 q 340 676 343 734 q 304 540 336 579 q 208 481 272 501 q 251 466 236 472 q 288 440 266 459 q 322 394 309 420 q 343 216 343 348 l 343 194 q 368 32 343 77 q 486 -38 393 -12 l 486 -126 q 310 -114 363 -123 q 220 -73 256 -105 q 179 -11 193 -48 q 164 54 166 26 q 161 145 162 83 l 161 238 l 161 273 q 140 368 158 331 q 104 416 122 404 q 56 438 87 427 "},"X":{"x_min":12.5,"x_max":887.578125,"ha":897,"o":"m 832 980 l 555 531 l 887 0 l 677 0 l 448 362 l 225 0 l 12 0 l 341 531 l 59 980 l 270 980 l 448 700 l 618 980 l 832 980 "},"P":{"x_min":113.890625,"x_max":843.125,"ha":868,"o":"m 113 0 l 113 980 l 444 980 q 612 965 555 980 q 772 863 702 940 q 843 654 843 787 q 786 458 843 544 q 607 344 729 372 q 441 331 552 331 l 298 331 l 298 0 l 113 0 m 437 823 l 298 823 l 298 483 l 430 483 q 534 491 502 483 q 655 658 655 520 q 607 783 655 738 q 437 823 559 823 "},"%":{"x_min":36.109375,"x_max":1180.65625,"ha":1215,"o":"m 1180 309 q 1157 134 1180 197 q 954 -9 1101 -9 q 823 31 877 -9 q 729 311 729 104 q 832 584 729 509 q 958 623 884 623 q 1069 593 1022 623 q 1132 530 1108 568 q 1166 444 1157 493 q 1177 372 1175 395 q 1180 309 1179 348 m 1055 305 q 1053 368 1055 343 q 1043 433 1051 393 q 1012 495 1034 473 q 955 516 990 516 q 893 488 918 516 q 861 402 869 463 q 854 300 854 359 q 954 98 854 98 q 1011 118 988 98 q 1042 173 1033 137 q 1053 237 1051 209 q 1055 305 1055 265 m 330 -6 l 769 940 l 862 897 l 426 -50 l 330 -6 m 487 636 q 466 465 487 525 q 259 312 411 312 q 141 345 190 312 q 36 627 36 416 q 131 901 36 825 q 265 945 187 945 q 388 908 336 945 q 487 636 483 838 m 362 634 q 360 696 362 672 q 350 759 358 720 q 319 819 341 798 q 262 840 297 840 q 161 622 161 840 q 263 420 161 420 q 305 430 287 420 q 333 460 323 440 q 350 499 343 480 q 359 547 356 518 q 361 592 361 576 q 362 634 362 608 "},"#":{"x_min":58.34375,"x_max":863.953125,"ha":926,"o":"m 647 297 l 604 0 l 463 0 l 506 297 l 369 297 l 327 0 l 186 0 l 227 297 l 58 297 l 58 434 l 247 434 l 263 566 l 90 566 l 90 705 l 281 705 l 319 982 l 463 982 l 425 705 l 561 705 l 598 982 l 738 982 l 701 705 l 863 705 l 863 566 l 683 566 l 663 434 l 834 434 l 834 297 l 647 297 m 386 434 l 525 434 l 543 566 l 405 566 l 386 434 "},"_":{"x_min":-13.890625,"x_max":708.390625,"ha":695,"o":"m 708 -104 l 708 -173 l -13 -173 l -13 -104 l 708 -104 "},"+":{"x_min":58.34375,"x_max":868.125,"ha":926,"o":"m 536 333 l 536 0 l 393 0 l 393 333 l 58 333 l 58 475 l 393 475 l 393 809 l 536 809 l 536 475 l 868 475 l 868 333 l 536 333 "},")":{"x_min":36.109375,"x_max":426.421875,"ha":492,"o":"m 36 1022 l 76 1091 q 225 973 156 1048 q 330 834 293 898 q 426 483 426 673 q 318 123 426 290 q 84 -126 227 -15 l 36 -56 q 188 211 141 48 q 231 537 231 355 q 178 817 231 690 q 36 1022 125 944 "},"'":{"x_min":59.734375,"x_max":229.65625,"ha":289,"o":"m 229 944 l 163 584 l 126 584 l 61 927 q 59 958 59 938 q 87 1019 59 998 q 150 1040 115 1040 q 218 1008 193 1040 q 229 944 231 988 "},"}":{"x_min":5.5625,"x_max":434.75,"ha":492,"o":"m 434 526 l 434 438 q 402 427 413 431 q 376 409 391 423 q 350 372 361 394 q 331 215 331 333 l 331 165 q 320 13 330 61 q 276 -68 309 -33 q 189 -113 241 -102 q 5 -126 137 -125 l 5 -37 q 125 33 95 -15 q 150 195 150 70 l 148 197 q 151 288 148 230 q 187 425 155 386 q 283 483 219 463 q 240 499 255 493 q 203 525 225 505 q 169 570 181 544 q 148 748 148 616 l 148 770 q 123 932 148 887 q 5 1004 98 977 l 5 1091 q 181 1079 127 1088 q 270 1038 234 1070 q 311 976 298 1013 q 327 910 325 938 q 330 819 329 882 l 330 726 l 330 691 q 351 597 333 633 q 386 549 369 561 q 434 526 404 537 "},"a":{"x_min":36.109375,"x_max":694.5,"ha":753,"o":"m 238 480 l 68 490 q 95 594 73 552 q 372 715 162 715 q 580 670 505 715 q 650 594 636 637 q 663 480 663 551 l 663 112 q 668 48 663 68 q 694 0 673 29 l 497 0 q 493 54 493 50 q 287 -16 409 -16 q 104 45 173 -16 q 36 200 36 106 q 58 294 36 250 q 103 354 76 329 q 165 395 130 380 q 223 416 200 409 q 281 429 247 422 q 497 480 431 459 q 494 512 497 498 q 481 545 491 526 q 445 575 472 565 q 379 586 419 586 q 255 541 288 586 q 238 480 238 520 m 497 269 l 497 345 q 351 304 444 319 q 286 292 311 298 q 237 264 262 286 q 212 208 212 243 q 243 147 212 168 q 325 126 273 126 q 429 150 384 126 q 487 206 473 173 q 497 269 497 227 "},"T":{"x_min":31.953125,"x_max":751.453125,"ha":781,"o":"m 751 980 l 751 813 l 480 813 l 480 0 l 297 0 l 297 813 l 31 813 l 31 980 l 751 980 "},"=":{"x_min":0,"x_max":926.46875,"ha":926,"o":"m 926 345 l 926 202 l 0 202 l 0 345 l 926 345 m 926 607 l 926 463 l 0 463 l 0 607 l 926 607 "},"N":{"x_min":113.890625,"x_max":870.90625,"ha":983,"o":"m 712 287 l 690 980 l 870 980 l 870 0 l 711 0 l 281 687 l 293 0 l 113 0 l 113 980 l 279 980 l 712 287 "},"2":{"x_min":79.171875,"x_max":716.71875,"ha":781,"o":"m 306 144 l 716 144 l 716 0 l 79 0 l 79 134 q 372 386 223 233 q 433 453 409 425 q 483 538 456 481 q 509 652 509 595 q 478 752 509 712 q 386 793 447 793 q 319 777 347 793 q 279 736 291 761 q 260 681 268 711 q 254 624 252 651 q 254 576 255 597 l 79 591 q 158 851 79 757 q 400 952 245 952 q 618 872 534 952 q 701 659 701 791 q 649 472 701 555 q 505 306 597 390 q 306 144 380 198 "},"j":{"x_min":1.390625,"x_max":258.359375,"ha":347,"o":"m 93 972 l 256 972 l 256 804 l 93 804 l 93 972 m 93 695 l 258 695 l 258 -5 q 250 -122 258 -100 q 38 -225 216 -225 q 1 -223 22 -225 l 1 -70 q 77 -44 56 -70 q 90 -15 88 -30 q 93 61 93 -1 l 93 695 "},"Z":{"x_min":33.34375,"x_max":798.671875,"ha":839,"o":"m 283 165 l 798 165 l 798 0 l 33 0 l 33 150 l 569 815 l 79 815 l 79 980 l 798 980 l 798 823 l 283 165 "},"u":{"x_min":86.125,"x_max":718.109375,"ha":810,"o":"m 551 694 l 718 694 l 718 0 l 551 0 l 551 70 q 326 -16 459 -16 q 133 63 195 -16 q 100 129 111 91 q 87 197 88 166 q 86 293 86 227 l 86 694 l 254 694 l 254 295 q 259 226 254 244 q 388 138 286 138 q 523 212 477 138 q 545 281 541 244 q 551 400 550 318 l 551 694 "},"1":{"x_min":104.171875,"x_max":504.203125,"ha":781,"o":"m 365 937 l 504 937 l 504 0 l 333 0 l 333 536 q 322 630 333 609 q 256 651 311 651 l 104 651 l 104 758 l 122 758 q 178 760 158 758 q 233 771 198 762 q 289 798 268 780 q 332 852 311 816 q 365 937 354 887 "},"k":{"x_min":88.890625,"x_max":763.953125,"ha":753,"o":"m 88 980 l 254 980 l 254 429 l 525 694 l 737 694 l 472 429 l 763 0 l 561 0 l 351 311 l 254 215 l 254 0 l 88 0 l 88 980 "},"<":{"x_min":0,"x_max":926.46875,"ha":926,"o":"m 926 151 l 926 -4 l 0 416 l 0 561 l 926 984 l 926 827 l 191 488 l 926 151 "},"t":{"x_min":5.5625,"x_max":422.25,"ha":435,"o":"m 422 575 l 273 575 l 273 261 q 275 204 273 220 q 283 168 276 187 q 306 143 290 150 q 352 137 323 137 q 422 145 394 137 l 422 5 q 301 -5 355 -5 q 118 79 150 -5 q 106 220 106 106 l 106 575 l 5 575 l 5 694 l 106 694 l 106 940 l 273 940 l 273 694 l 422 694 l 422 575 "},"W":{"x_min":16.671875,"x_max":1143.140625,"ha":1157,"o":"m 954 980 l 1143 980 l 927 0 l 713 0 l 576 682 l 434 0 l 220 0 l 16 980 l 204 980 l 337 233 l 490 980 l 661 980 l 816 233 l 954 980 "},"v":{"x_min":18.0625,"x_max":650.046875,"ha":665,"o":"m 476 694 l 650 694 l 422 0 l 243 0 l 18 694 l 190 694 l 334 216 l 476 694 "},">":{"x_min":0,"x_max":926.46875,"ha":926,"o":"m 926 416 l 0 -4 l 0 151 l 733 488 l 0 827 l 0 984 l 926 561 l 926 416 "},"s":{"x_min":30.5625,"x_max":676.4375,"ha":724,"o":"m 30 102 l 154 205 q 354 116 226 116 q 455 142 419 116 q 491 198 491 168 q 419 258 491 244 q 341 273 411 259 q 256 291 270 287 q 103 372 145 318 q 61 488 61 427 q 141 648 61 581 q 358 715 222 715 q 587 648 493 715 q 658 586 627 622 l 540 476 q 351 581 486 581 q 265 561 295 581 q 236 511 236 540 q 268 460 236 476 q 376 431 301 444 q 535 399 495 409 q 605 363 575 388 q 676 216 676 309 q 595 52 676 125 q 363 -20 513 -20 q 30 102 158 -20 "},"B":{"x_min":112.515625,"x_max":893.125,"ha":956,"o":"m 112 0 l 112 980 l 462 980 q 675 963 623 979 q 798 880 750 941 q 847 740 847 819 q 805 607 847 663 q 683 536 762 551 q 832 452 770 520 q 893 277 893 384 q 848 122 893 190 q 718 23 804 54 q 495 0 651 0 l 112 0 m 409 830 l 294 830 l 294 586 l 356 586 q 468 587 445 586 q 593 607 556 587 q 658 708 658 638 q 601 805 658 772 q 542 825 572 822 q 409 830 512 829 m 476 447 l 294 448 l 294 158 l 475 158 q 595 163 563 158 q 659 191 626 168 q 704 294 704 223 q 686 368 704 336 q 645 413 670 395 q 586 437 619 430 q 531 445 552 444 q 476 447 509 447 "},"?":{"x_min":73.609375,"x_max":741.71875,"ha":781,"o":"m 241 657 l 73 676 q 112 832 79 766 q 196 932 145 898 q 300 982 247 966 q 411 997 354 997 q 652 914 562 997 q 741 708 741 832 q 629 487 741 570 q 591 461 622 483 q 545 426 561 438 q 502 369 511 397 q 494 290 494 341 q 495 251 494 261 l 333 251 q 350 446 333 394 q 415 537 368 498 q 453 565 427 548 q 486 586 479 581 q 551 704 551 637 q 509 799 551 759 q 402 838 466 838 q 287 790 329 838 q 241 657 245 741 m 323 190 l 508 190 l 508 0 l 323 0 l 323 190 "},"H":{"x_min":112.515625,"x_max":901.46875,"ha":1013,"o":"m 716 980 l 901 980 l 901 0 l 716 0 l 716 445 l 295 445 l 295 0 l 112 0 l 112 980 l 295 980 l 295 609 l 716 609 l 716 980 "},"c":{"x_min":33.34375,"x_max":690.328125,"ha":695,"o":"m 683 518 l 534 448 q 481 529 522 491 q 377 566 441 566 q 254 509 302 566 q 205 351 205 452 q 252 195 205 255 q 380 134 300 134 q 547 270 495 134 l 690 195 q 563 34 651 90 q 377 -20 476 -20 q 131 81 230 -20 q 33 347 33 184 q 134 610 33 505 q 383 715 234 715 q 574 655 500 715 q 683 518 648 595 "},"&":{"x_min":59.734375,"x_max":852.84375,"ha":897,"o":"m 677 454 l 837 454 q 723 179 813 290 q 822 136 763 136 q 852 138 838 136 l 852 0 q 782 -4 791 -4 q 607 52 670 -4 q 370 -20 497 -20 q 220 6 284 -20 q 122 79 155 34 q 75 168 90 123 q 59 255 59 212 q 115 420 59 352 q 273 545 172 487 q 230 690 230 612 q 295 857 230 795 q 456 919 359 919 q 621 856 559 919 q 683 711 683 793 q 640 584 683 647 q 498 487 597 520 q 561 389 511 463 q 626 300 612 315 q 677 454 668 361 m 429 609 q 465 622 452 618 q 497 640 477 627 q 527 670 518 652 q 537 713 537 688 q 516 766 537 745 q 462 787 495 787 q 408 768 429 787 q 387 715 387 748 q 429 609 387 675 m 515 176 l 348 422 q 259 354 290 388 q 227 266 227 319 q 271 165 227 206 q 380 123 315 123 q 515 176 454 123 "},"−":{"x_min":0,"x_max":926.46875,"ha":926,"o":"m 926 479 l 926 336 l 0 336 l 0 479 l 926 479 "},"I":{"x_min":111.125,"x_max":291.6875,"ha":406,"o":"m 111 980 l 291 980 l 291 0 l 111 0 l 111 980 "},"G":{"x_min":63.890625,"x_max":951.46875,"ha":1042,"o":"m 538 536 l 951 536 l 951 0 l 794 0 l 794 83 q 526 -25 684 -25 q 186 122 309 -25 q 63 480 63 270 q 198 857 63 709 q 537 1005 333 1005 q 795 925 686 1005 q 951 716 904 844 l 776 645 q 538 840 711 840 q 335 739 406 840 q 263 486 263 638 q 341 237 263 327 q 541 147 419 147 q 702 201 632 147 q 783 375 772 255 l 538 375 l 538 536 "},"(":{"x_min":65.28125,"x_max":455.59375,"ha":492,"o":"m 455 -56 l 415 -126 q 268 -8 336 -83 q 161 130 200 66 q 65 481 65 288 q 173 841 65 672 q 406 1091 262 979 l 455 1022 q 302 754 348 909 q 259 427 259 608 q 313 147 259 275 q 455 -56 366 19 "},"`":{"x_min":50,"x_max":326.421875,"ha":376,"o":"m 50 982 l 254 982 l 326 795 l 202 795 l 50 982 "},"U":{"x_min":111.125,"x_max":901.46875,"ha":1013,"o":"m 716 980 l 901 980 l 901 362 q 898 279 900 306 q 887 210 897 252 q 855 135 877 168 q 795 70 833 102 q 500 -25 686 -25 q 326 1 401 -25 q 193 84 244 29 q 125 200 143 138 q 111 395 112 241 l 111 980 l 294 980 l 294 377 q 306 258 294 291 q 505 152 348 152 q 662 201 607 152 q 700 255 688 225 q 714 311 712 286 q 716 387 716 336 l 716 980 "},"F":{"x_min":112.515625,"x_max":761.171875,"ha":781,"o":"m 294 816 l 294 572 l 704 572 l 704 415 l 294 415 l 294 0 l 112 0 l 112 980 l 761 980 l 761 816 l 294 816 "},"r":{"x_min":88.890625,"x_max":472.265625,"ha":492,"o":"m 88 694 l 250 694 l 250 595 q 272 630 262 616 q 309 666 283 644 q 376 700 334 688 q 472 709 418 711 l 472 538 q 322 497 372 534 q 261 409 273 459 q 250 256 250 359 l 250 0 l 88 0 l 88 694 "},":":{"x_min":108.34375,"x_max":291.6875,"ha":347,"o":"m 108 707 l 291 707 l 291 516 l 108 516 l 108 707 m 108 190 l 291 190 l 291 0 l 108 0 l 108 190 "},"x":{"x_min":12.5,"x_max":686.171875,"ha":695,"o":"m 461 694 l 658 694 l 448 372 l 686 0 l 494 0 l 350 219 l 211 0 l 12 0 l 251 372 l 40 694 l 236 694 l 350 519 l 461 694 "},"*":{"x_min":48.609375,"x_max":472.265625,"ha":521,"o":"m 437 891 l 472 802 l 356 758 l 297 765 l 350 733 l 425 637 l 350 579 l 275 672 l 258 733 l 245 672 l 177 579 l 100 637 l 168 733 l 209 758 l 161 758 l 48 793 l 79 884 l 187 850 l 231 812 l 209 869 l 209 980 l 306 980 l 306 869 l 283 812 l 327 850 l 437 891 "},"V":{"x_min":11.109375,"x_max":826.453125,"ha":839,"o":"m 636 980 l 826 980 l 547 0 l 300 0 l 11 980 l 204 980 l 423 206 l 636 980 "},"μ":{"x_min":86.125,"x_max":718.109375,"ha":810,"o":"m 551 1 l 551 72 q 506 26 522 40 q 460 -1 491 12 q 390 -15 429 -15 q 254 54 308 -15 l 254 -225 l 86 -225 l 86 695 l 254 695 l 254 336 q 400 140 254 140 q 471 155 441 140 q 516 191 501 170 q 540 250 531 212 q 550 315 548 287 q 551 390 551 344 l 551 695 l 718 695 l 718 1 l 551 1 "},"h":{"x_min":86.125,"x_max":722.28125,"ha":810,"o":"m 86 980 l 252 980 l 252 623 q 473 715 344 715 q 663 640 595 715 q 704 573 690 611 q 720 507 718 536 q 722 429 722 479 l 722 0 l 558 0 l 558 381 q 547 480 554 461 q 426 556 516 556 q 313 515 355 556 q 258 430 270 473 q 252 319 252 408 l 252 0 l 86 0 l 86 980 "},"0":{"x_min":50,"x_max":734.78125,"ha":781,"o":"m 734 473 q 727 341 734 400 q 701 215 720 281 q 638 97 682 148 q 531 16 595 45 q 390 -12 469 -12 q 118 133 211 -12 q 50 463 50 241 q 133 820 50 705 q 243 915 175 877 q 398 952 312 952 q 657 816 566 952 q 734 473 734 700 m 555 468 q 518 717 555 634 q 397 800 481 800 q 308 771 343 800 q 257 688 273 743 q 236 583 241 634 q 230 461 230 531 q 233 368 230 406 q 245 283 236 329 q 271 209 254 237 q 320 161 288 180 q 394 141 351 141 q 521 223 487 141 q 555 468 555 305 "},".":{"x_min":51.390625,"x_max":234.734375,"ha":289,"o":"m 51 190 l 234 190 l 234 0 l 51 0 l 51 190 "},"@":{"x_min":95.84375,"x_max":1148.703125,"ha":1245,"o":"m 1087 123 l 1143 52 q 632 -172 911 -172 q 490 -156 561 -172 q 347 -104 419 -141 q 220 -11 275 -66 q 130 131 165 44 q 95 327 95 219 q 281 793 95 598 q 730 988 466 988 q 1041 873 933 988 q 1148 588 1148 758 q 1048 245 1148 395 q 822 94 948 94 q 718 148 750 94 q 702 201 705 170 q 515 95 619 95 q 383 153 438 95 q 327 325 327 211 q 416 600 327 479 q 625 722 504 722 q 779 622 729 722 l 795 693 l 905 693 l 859 479 q 820 243 820 295 q 831 206 820 219 q 855 194 841 194 q 982 315 913 194 q 1050 580 1050 436 q 1020 731 1050 666 q 942 830 991 795 q 838 881 893 865 q 725 897 784 897 q 351 728 511 897 q 191 327 191 559 q 218 168 191 238 q 289 52 245 97 q 391 -23 333 6 q 509 -66 450 -54 q 629 -79 568 -79 q 1087 123 882 -79 m 738 484 q 708 581 740 547 q 634 616 676 616 q 538 569 581 616 q 475 457 495 522 q 454 330 454 393 q 484 234 454 266 q 554 201 515 201 q 681 287 625 201 q 738 484 737 373 "},"f":{"x_min":5.5625,"x_max":427.8125,"ha":435,"o":"m 427 576 l 276 576 l 276 0 l 109 0 l 109 576 l 5 576 l 5 695 l 109 695 l 109 775 q 111 835 109 813 q 123 889 112 857 q 156 938 134 922 q 223 968 179 955 q 333 982 268 982 q 427 976 366 982 l 427 834 q 375 838 406 838 q 287 804 311 838 q 276 752 276 784 l 276 695 l 427 695 l 427 576 "},";":{"x_min":108.34375,"x_max":293.078125,"ha":347,"o":"m 108 707 l 293 707 l 293 515 l 108 515 l 108 707 m 108 190 l 293 190 l 293 13 q 285 -81 293 -52 q 245 -140 277 -111 q 118 -194 202 -176 l 118 -111 q 165 -91 148 -106 q 182 -72 176 -81 q 190 -47 188 -62 q 193 -26 193 -33 q 194 0 194 -19 l 108 0 l 108 190 "},"i":{"x_min":90.28125,"x_max":255.578125,"ha":347,"o":"m 90 970 l 255 970 l 255 802 l 90 802 l 90 970 m 90 694 l 255 694 l 255 0 l 90 0 l 90 694 "},"6":{"x_min":66.671875,"x_max":712.5625,"ha":781,"o":"m 701 719 l 523 694 q 488 775 522 751 q 413 800 454 800 q 331 774 365 800 q 281 701 298 748 q 257 610 265 654 q 247 509 250 566 q 444 604 322 604 q 633 528 554 604 q 712 312 712 452 q 622 78 712 169 q 397 -12 533 -12 q 138 120 226 -12 q 66 441 66 230 q 68 511 66 477 q 78 599 70 545 q 99 697 86 652 q 138 792 112 743 q 201 875 165 841 q 292 930 237 908 q 415 952 347 952 q 564 918 501 952 q 662 829 627 883 q 701 719 690 784 m 537 294 q 502 405 537 363 q 404 447 466 447 q 300 403 336 447 q 263 295 263 359 q 267 258 263 277 q 282 209 270 238 q 325 161 294 180 q 400 143 355 143 q 504 188 472 143 q 537 294 537 233 "},"A":{"x_min":9.71875,"x_max":883.40625,"ha":897,"o":"m 687 0 l 630 191 l 262 191 l 205 0 l 9 0 l 340 980 l 548 980 l 883 0 l 687 0 m 311 351 l 581 351 l 447 802 l 311 351 "},"n":{"x_min":87.5,"x_max":694.5,"ha":781,"o":"m 87 0 l 87 694 l 255 694 l 255 612 q 309 666 277 644 q 469 715 376 715 q 575 691 526 715 q 651 632 625 668 q 682 565 672 604 q 693 496 691 526 q 694 408 694 466 l 694 0 l 529 0 l 529 354 q 523 459 529 440 q 409 552 500 552 q 334 531 369 552 q 281 475 300 509 q 255 301 255 423 l 255 0 l 87 0 "},"O":{"x_min":66.671875,"x_max":1007.03125,"ha":1071,"o":"m 1007 490 q 879 122 1005 270 q 534 -25 752 -25 q 197 125 327 -25 q 66 488 66 276 q 201 859 66 712 q 537 1005 336 1005 q 713 971 629 1005 q 863 874 797 937 q 968 711 929 811 q 1007 490 1007 611 m 823 469 q 750 729 826 622 q 536 837 673 837 q 332 743 409 837 q 255 497 255 650 q 335 239 255 334 q 540 144 415 144 q 636 162 588 144 q 725 217 683 180 q 795 319 768 254 q 823 469 822 384 "},"3":{"x_min":65.28125,"x_max":727.84375,"ha":781,"o":"m 268 641 l 84 680 q 187 877 109 812 q 406 952 276 952 q 496 941 450 952 q 592 904 543 929 q 673 827 641 879 q 705 704 705 775 q 654 559 705 618 q 550 502 620 522 q 673 434 619 488 q 727 277 727 379 q 638 69 727 151 q 393 -12 550 -12 q 156 65 238 -12 q 65 306 65 148 l 250 306 q 248 277 248 297 q 288 177 248 216 q 395 138 327 138 q 505 182 469 138 q 541 287 541 226 q 477 405 541 370 q 377 425 444 425 l 331 423 l 331 569 q 408 568 390 568 q 520 679 520 575 q 488 763 520 729 q 401 798 456 798 q 329 779 358 798 q 288 730 300 761 q 272 681 276 700 q 268 641 269 662 "},"]":{"x_min":36.109375,"x_max":405.59375,"ha":492,"o":"m 36 -80 l 36 52 l 223 52 l 223 918 l 36 918 l 36 1054 l 405 1054 l 405 -80 l 36 -80 "},"m":{"x_min":88.890625,"x_max":1126.484375,"ha":1215,"o":"m 88 0 l 88 694 l 254 694 l 254 616 q 355 690 293 665 q 473 715 418 715 q 666 608 607 715 q 752 681 695 648 q 888 715 808 715 q 1072 644 1007 715 q 1111 577 1098 616 q 1125 512 1123 537 q 1126 437 1126 487 l 1126 0 l 961 0 l 961 383 q 961 395 961 387 q 960 439 961 423 q 954 481 959 455 q 936 521 948 506 q 901 547 925 536 q 844 558 877 558 q 726 493 766 558 q 690 326 690 434 l 690 0 l 525 0 l 525 387 q 519 476 525 455 q 481 535 509 512 q 412 558 454 558 q 284 477 330 558 q 254 290 254 420 l 254 0 l 88 0 "},"9":{"x_min":69.453125,"x_max":716.71875,"ha":781,"o":"m 69 223 l 259 251 q 275 198 265 215 q 372 140 302 140 q 466 189 429 140 q 514 296 502 238 q 526 416 526 354 q 454 359 504 384 q 338 334 405 334 q 145 411 222 334 q 69 629 69 487 q 162 869 69 786 q 387 952 255 952 q 552 911 483 952 q 716 505 716 809 q 620 122 716 256 q 351 -12 523 -12 q 227 12 283 -12 q 150 59 172 37 q 112 106 127 81 q 69 223 83 152 m 512 637 q 479 755 512 709 q 381 801 445 801 q 289 762 329 801 q 250 647 250 723 q 284 529 250 575 q 381 484 319 484 q 402 486 391 484 q 434 495 412 487 q 471 518 455 504 q 500 563 487 531 q 512 637 512 594 "},"l":{"x_min":90.28125,"x_max":258.359375,"ha":347,"o":"m 90 980 l 258 980 l 258 0 l 90 0 l 90 980 "},"8":{"x_min":40.28125,"x_max":737.5625,"ha":781,"o":"m 593 490 q 737 269 737 418 q 638 65 737 143 q 386 -12 540 -12 q 134 66 227 -12 q 40 269 40 145 q 56 361 40 320 q 101 428 72 402 q 149 466 130 454 q 194 490 168 477 q 100 580 127 522 q 73 694 73 638 q 161 879 73 807 q 395 952 248 952 q 627 880 540 952 q 715 686 715 808 q 593 490 715 550 m 394 800 q 283 762 315 801 q 251 673 251 723 q 259 621 251 645 q 302 573 268 597 q 395 550 337 550 q 501 587 469 550 q 533 673 533 625 q 491 772 533 744 q 394 800 448 800 m 394 409 q 307 393 343 409 q 258 352 272 377 q 240 309 244 326 q 236 275 236 291 q 277 177 236 213 q 394 141 319 141 q 507 177 463 141 q 551 276 551 212 q 547 305 551 290 q 531 347 544 320 q 482 392 518 375 q 394 409 447 409 "},"p":{"x_min":90.28125,"x_max":761.171875,"ha":810,"o":"m 90 -226 l 90 694 l 255 694 l 255 630 q 445 715 336 715 q 676 604 591 715 q 761 340 761 493 q 672 81 761 183 q 445 -20 584 -20 q 255 56 340 -20 l 255 -226 l 90 -226 m 305 504 q 254 351 255 454 q 301 192 252 248 q 423 136 350 136 q 542 188 493 136 q 591 348 591 240 q 572 453 591 409 q 524 518 554 497 q 468 547 494 538 q 420 555 443 555 q 305 504 355 555 "},"4":{"x_min":23.609375,"x_max":726.453125,"ha":781,"o":"m 604 358 l 726 358 l 726 216 l 604 216 l 604 0 l 434 0 l 434 216 l 23 216 l 23 338 l 434 938 l 604 938 l 604 358 m 202 358 l 434 358 l 444 730 l 202 358 "},"R":{"x_min":112.515625,"x_max":862.5625,"ha":897,"o":"m 112 0 l 112 980 l 425 980 q 546 977 508 979 q 636 959 584 975 q 729 909 688 943 q 837 668 837 820 q 822 570 837 615 q 785 497 807 525 q 735 447 763 469 q 686 414 707 425 q 644 398 665 404 l 862 0 l 652 0 l 458 363 l 294 363 l 294 0 l 112 0 m 379 822 l 294 822 l 294 515 l 358 515 q 479 518 409 515 q 651 669 651 523 q 573 801 651 761 q 379 822 531 822 "},"o":{"x_min":48.609375,"x_max":762.5625,"ha":810,"o":"m 762 350 q 664 83 762 187 q 409 -20 566 -20 q 148 84 248 -20 q 48 350 48 188 q 147 612 48 509 q 402 715 247 715 q 657 616 554 715 q 762 350 761 516 m 587 352 q 535 504 584 443 q 401 565 486 565 q 272 506 322 565 q 222 354 222 448 q 276 191 222 251 q 409 131 330 131 q 543 196 495 131 q 587 352 590 261 "},"5":{"x_min":50,"x_max":720.890625,"ha":781,"o":"m 666 940 l 652 783 l 287 783 l 255 576 q 436 645 325 645 q 641 559 562 645 q 720 333 720 473 q 627 85 720 183 q 372 -12 534 -12 q 194 26 270 -12 q 50 262 65 94 l 244 276 q 284 172 247 208 q 379 137 322 137 q 461 159 429 137 q 512 226 493 180 q 531 326 531 272 q 487 456 531 409 q 376 502 443 502 q 236 415 269 502 l 79 425 l 145 940 l 666 940 "}}}
